<svg width="74" height="31" viewBox="0 0 74 31" fill="none" xmlns="http://www.w3.org/2000/svg">
<path d="M30.2705 2.45954H33.7642L36.0182 7.14785H36.1083L38.3623 2.45954H41.856L37.6185 10.3711V14H34.508V10.3711L30.2705 2.45954ZM50.0243 2.45954H53.1574V9.85265C53.1574 10.7317 52.947 11.4924 52.5263 12.1348C52.1093 12.7735 51.527 13.2675 50.7794 13.6168C50.0318 13.9624 49.1641 14.1352 48.1761 14.1352C47.1805 14.1352 46.309 13.9624 45.5614 13.6168C44.8138 13.2675 44.2316 12.7735 43.8146 12.1348C43.4013 11.4924 43.1947 10.7317 43.1947 9.85265V2.45954H46.3278V9.58217C46.3278 9.93905 46.4067 10.2584 46.5644 10.5401C46.7222 10.8181 46.9401 11.036 47.2181 11.1938C47.4999 11.3516 47.8192 11.4304 48.1761 11.4304C48.5367 11.4304 48.856 11.3516 49.134 11.1938C49.412 11.036 49.6299 10.8181 49.7877 10.5401C49.9454 10.2584 50.0243 9.93905 50.0243 9.58217V2.45954ZM54.9638 2.45954H58.8632L61.5455 8.99613H61.6807L64.363 2.45954H68.2624V14H65.1969V7.32817H65.1068L62.5372 13.9098H60.6889L58.1194 7.28309H58.0292V14H54.9638V2.45954ZM73.1976 2.45954V14H70.0646V2.45954H73.1976Z" fill="#2F2F2F"/>
<path fill-rule="evenodd" clip-rule="evenodd" d="M26.0455 23.9545V1.90918H18.1477V17.1365H17.9205L7.57955 1.90918H0.875V31.0001H8.77273V15.716H8.94318L19.2693 30.7307L26.0455 23.9545ZM26.0455 30.875L26 31H19.4545L19.4545 31.0001H26.0455V30.875Z" fill="#2F2F2F"/>
<path fill-rule="evenodd" clip-rule="evenodd" d="M36.4409 20L25.4409 31H28.2693L38.5621 20.7073L39.2692 20.0002L39.269 20H36.4409ZM42.7871 20L31.7871 31H34.6155L44.9082 20.7073L45.6154 20.0002L45.6152 20H42.7871ZM49.1332 20L38.1332 31H40.9617L51.2544 20.7073L51.9615 20.0002L51.9614 20H49.1332ZM55.4794 20L44.4794 31H47.3078L57.6006 20.7073L58.3077 20.0002L58.3075 20H55.4794ZM61.8255 20L50.8255 31H53.654L63.9467 20.7073L64.6538 20.0002L64.6537 20H61.8255ZM68.1717 20L57.1717 31H60.0001L70.2929 20.7073L71 20.0002L70.9998 20H68.1717Z" fill="#2F2F2F"/>
</svg>
