<svg width="60" height="19" viewBox="0 0 60 19" fill="none" xmlns="http://www.w3.org/2000/svg">
<line x1="1" y1="-1" x2="23.3952" y2="-1" transform="matrix(-0.707107 0.707107 0.707107 0.707107 51.75 1)" stroke="#2F2F2F" stroke-width="2" stroke-linecap="round"/>
<line x1="1" y1="-1" x2="23.3952" y2="-1" transform="matrix(-0.707107 0.707107 0.707107 0.707107 43.5 1)" stroke="#2F2F2F" stroke-width="2" stroke-linecap="round"/>
<line x1="1" y1="-1" x2="23.3952" y2="-1" transform="matrix(-0.707107 0.707107 0.707107 0.707107 60 1)" stroke="#2F2F2F" stroke-width="2" stroke-linecap="round"/>
<line x1="1" y1="-1" x2="23.3952" y2="-1" transform="matrix(-0.707107 0.707107 0.707107 0.707107 35.25 1)" stroke="#2F2F2F" stroke-width="2" stroke-linecap="round"/>
<line x1="1" y1="-1" x2="23.3952" y2="-1" transform="matrix(-0.707107 0.707107 0.707107 0.707107 27 1)" stroke="#2F2F2F" stroke-width="2" stroke-linecap="round"/>
<line x1="1" y1="-1" x2="23.3952" y2="-1" transform="matrix(-0.707107 0.707107 0.707107 0.707107 18.75 1)" stroke="#2F2F2F" stroke-width="2" stroke-linecap="round"/>
</svg>
